<svg width="76" height="18" viewBox="0 0 76 18" fill="none" xmlns="http://www.w3.org/2000/svg">
<g clip-path="url(#clip0)">
<path fill-rule="evenodd" clip-rule="evenodd" d="M75.8822 14.157C72.7063 19.5415 67.6766 17.9791 66.166 16.7558C65.5231 17.192 64.3958 18.1481 62.8926 18.0377C59.6913 17.8027 58.5449 13.2279 58.5449 13.2279C58.5679 13.2462 57.5913 13.5649 57.0635 13.5592C57.0567 14.9008 55.897 18.1056 52.7672 18.0646C49.2551 18.0188 48.5411 12.7864 48.5411 12.7864C48.5411 12.7864 48.1916 13.2717 46.8627 13.7551C46.9296 12.7244 46.8807 17.9077 42.6713 17.9839C39.3435 18.0442 38.4452 12.7057 38.4452 12.7057C38.4452 12.7057 37.8679 13.3054 36.7491 13.5134C36.8202 12.4659 36.7046 18.0015 32.4947 17.9839C29.6497 17.9721 28.6775 14.6954 28.7531 14.2406C28.8496 13.661 27.7916 18.0654 25.0281 17.9968C23.8877 17.9633 23.0375 17.1376 22.504 16.0368C21.7898 16.854 20.7529 17.9968 19.5897 17.9968C17.5017 17.9968 16.5812 16.2504 16.7371 11.2624C16.7504 10.6708 16.7077 10.4381 16.1196 10.3496C15.7666 10.2907 15.4051 10.1792 15.0226 10.1204C14.9 10.5295 13.8602 17.8637 10.2847 18.0029C9.08519 18.0496 8.4293 17.0105 7.89066 16.2393C7.06497 17.3316 5.97501 18.0377 4.42227 18.0377C1.79205 18.0377 0 15.9114 0 13.2885C0 10.6655 1.79205 8.53942 4.42227 8.53942C4.88732 8.53942 5.01787 8.60608 5.44272 8.73004C4.569 0.77504 6.63238 -0.468213 8.43739 -0.468213C10.1703 -0.468213 13.1308 3.55384 8.96512 13.7559C9.88998 16.7989 11.8838 16.6268 12.8419 10.3626C13.0369 9.08927 12.5155 7.37099 13.3265 7.13117C14.809 6.69289 14.9663 8.00787 15.6614 8.22697C16.3964 8.45853 16.8254 8.43592 17.531 8.58327C18.7367 8.81873 19.2072 9.46643 19.0603 10.909C18.8839 12.7343 18.5753 15.391 19.5162 15.7148C20.1947 15.95 21.4335 14.5429 21.6509 13.773C21.8682 13.0031 21.9136 12.7396 21.9329 12.1749C21.9623 10.968 21.9992 10.0833 22.205 9.17055C22.2931 8.81736 22.3935 8.58347 22.7931 8.56748C23.1219 8.5591 23.7232 8.46009 23.9879 8.66611C24.3407 8.93119 24.2966 9.20017 24.2561 9.9081C23.8458 20.0015 27.0038 14.9628 27.9454 10.9283C27.6101 6.36623 27.8403 -0.384674 30.6991 -0.497899C32.1859 -0.556782 32.8432 0.63431 32.9155 1.52335C33.12 4.03433 31.9745 8.19372 30.468 10.9909C29.607 16.6984 34.2325 17.8269 34.9722 13.2712C33.762 12.6958 32.4541 10.3668 33.5184 9.23181C34.1156 8.59483 36.6015 9.5099 36.6422 11.5057C37.8616 11.1796 38.0244 10.4911 38.0413 10.6052C37.7061 6.04312 38.017 -0.384615 40.876 -0.497841C42.3626 -0.556724 43.0198 0.63437 43.0921 1.52341C43.2966 4.03438 42.1511 8.19378 40.6448 10.991C39.7837 16.6984 44.4093 17.827 45.1488 13.2713C44.2528 13.0984 42.3614 10.6212 43.4527 9.23187C44.0359 8.48944 46.5127 10.0334 46.79 11.5718C47.9614 11.2403 48.1205 10.5737 48.1373 10.6859C47.802 6.12397 48.1129 -0.303765 50.9719 -0.41699C52.4585 -0.475874 53.1157 0.71522 53.188 1.60426C53.3925 4.11523 52.247 8.27471 50.7405 11.0719C49.8796 16.7794 54.5051 17.9077 55.2448 13.352C54.0135 13.147 52.2636 10.5314 53.672 9.19333C54.2347 8.65869 56.3848 10.0465 56.8881 11.6298C57.5874 11.6029 58.0227 11.3617 58.116 11.3374C56.9996 5.9818 57.8307 -0.444122 60.9062 -0.497762C62.5685 -0.526726 64.1936 0.400905 63.4803 5.49604C62.7994 10.3574 60.3519 12.3975 60.3576 12.4287C60.5 13.0111 61.7559 17.8851 64.9185 15.3134C64.7548 14.9427 64.5909 14.564 64.4993 14.1052C63.9751 11.4327 65.0047 8.41409 67.8032 7.92622C69.4066 7.64671 70.917 8.42734 71.1558 10.1872C71.5487 13.0669 68.9484 15.1524 67.9596 15.6048C67.5167 15.3532 71.9742 18.212 74.6196 12.4829C74.773 12.1558 74.9579 12.1835 75.1975 12.3521C75.3667 12.4712 76.3305 13.3842 75.8822 14.157ZM6.33552 12.5809C6.20092 12.1785 5.92469 11.2918 5.82701 10.9076C5.28905 10.4398 4.90507 10.3638 4.21455 10.3638C2.68 10.3638 1.77679 11.7826 1.77679 13.3125C1.77679 14.8423 2.76077 16.2613 4.29533 16.2613C5.6252 16.2613 6.63735 15.3571 6.94615 14.0771C6.73001 13.5781 6.5156 13.1195 6.33552 12.5809ZM8.39979 1.63753C7.32153 1.63753 6.95576 4.20973 7.02674 6.40406C7.08953 8.34411 7.63164 10.0521 7.91286 10.8174C7.98426 10.9133 7.971 10.8509 8.03474 10.9526C9.90694 6.85053 9.13041 1.63753 8.39979 1.63753ZM30.8531 1.71833C29.4595 1.5585 29.4685 7.36389 29.6415 8.66611C30.3653 7.50823 31.6226 2.03009 30.8531 1.71833ZM41.0297 1.71833C39.6361 1.5585 39.6451 7.36389 39.8182 8.66611C40.5419 7.50823 41.7993 2.03009 41.0297 1.71833ZM51.1257 1.7991C49.732 1.63927 49.741 7.44469 49.9141 8.747C50.6378 7.58902 51.8952 2.11084 51.1257 1.7991ZM61.06 1.37849C58.8887 1.81451 59.3943 9.05399 59.7241 10.3237C62.2817 6.81085 62.3344 1.24654 61.06 1.37849ZM69.1975 10.4254C69.0871 9.9638 68.5351 9.7171 68.1541 9.7779C67.0639 9.9268 66.0065 11.2846 66.4158 13.3518C66.5069 13.8122 66.7349 14.236 66.7312 14.2219C69.1711 12.585 69.3785 11.2951 69.1975 10.4254ZM23.2205 6.96958C22.9089 6.96964 22.6043 6.87729 22.3452 6.70422C22.0861 6.53114 21.8841 6.28512 21.7648 5.99725C21.6455 5.70939 21.6143 5.39261 21.6751 5.087C21.7358 4.78138 21.8859 4.50065 22.1062 4.2803C22.3265 4.05995 22.6072 3.90989 22.9128 3.84909C23.2184 3.78829 23.5352 3.81948 23.8231 3.93873C24.111 4.05797 24.357 4.25991 24.5301 4.519C24.7032 4.77809 24.7956 5.0827 24.7956 5.39429C24.7956 5.60115 24.7549 5.80599 24.6757 5.9971C24.5966 6.18822 24.4806 6.36187 24.3343 6.50815C24.188 6.65443 24.0144 6.77047 23.8233 6.84964C23.6322 6.92882 23.4274 6.96957 23.2205 6.96958Z" fill="#0D0C22"/>
</g>
<defs>
<clipPath id="clip0">
<rect width="76" height="18" fill="white"/>
</clipPath>
</defs>
</svg>
