<svg width="14" height="16" viewBox="0 0 14 16" fill="none" xmlns="http://www.w3.org/2000/svg">
<path d="M13.0508 9.41797L7.20703 14.9297C7.10742 15.0293 6.97461 15.0625 6.875 15.0625C6.74219 15.0625 6.60938 15.0293 6.50977 14.9297L0.666016 9.41797C0.433594 9.21875 0.433594 8.88672 0.632812 8.6543C0.832031 8.42188 1.16406 8.42188 1.36328 8.62109L6.34375 13.2695V0.751953C6.34375 0.453125 6.57617 0.1875 6.8418 0.1875C7.10742 0.1875 7.40625 0.453125 7.40625 0.751953V13.2695L12.3535 8.62109C12.5527 8.42188 12.8848 8.42188 13.084 8.6543C13.2832 8.88672 13.2832 9.21875 13.0508 9.41797Z" fill="white"/>
</svg>
